<svg width="21" height="27" viewBox="0 0 21 27" fill="none" xmlns="http://www.w3.org/2000/svg">
<g id="20px">
<path id="Subtract" fill-rule="evenodd" clip-rule="evenodd" d="M13.6665 24.4707C13.0585 25.1726 12.5029 25.814 12.0469 26.3933C11.4062 27.2022 10.2188 27.2022 9.57813 26.3933C9.21066 25.9265 8.77847 25.4043 8.3063 24.8337C5.34535 21.256 0.8125 15.779 0.8125 10.1513C0.8125 4.54692 5.29167 0 10.8125 0C16.3333 0 20.8125 4.54692 20.8125 10.1513C20.8125 16.2215 16.6212 21.0598 13.6665 24.4707ZM10.8125 15.5C13.5092 15.5 15.6953 13.3139 15.6953 10.6172C15.6953 7.92048 13.5092 5.73438 10.8125 5.73438C8.1158 5.73438 5.92969 7.92048 5.92969 10.6172C5.92969 13.3139 8.1158 15.5 10.8125 15.5Z" fill="#2A2A2A"/>
</g>
</svg>
