                  <svg
                    version="1.1"
                    id="layer"
                    xmlns="http://www.w3.org/2000/svg"
                    xmlnsXlink="http://www.w3.org/1999/xlink"
                    x="0px"
                    y="0px"
                    viewBox="0 0 652 652"
                    enable-background="new 0 0 652 652"
                    xmlSpace="preserve"
                  >
                    <path
                      fill="#0053BB"
                      d="M454.1,568.3c-23.7-0.5-49.6-1.4-75.6-2.9c-24.4-1.5-48.9-3.4-73.2-6c-20.2-2.1-40.4-4.6-60.5-7.5
	c-14.8-2.2-29.7-3.9-44.2-7.4c-35.6-8.7-67.7-24.4-95.9-47.7c-42.3-35-69.9-79.3-82.5-132.8c-5.8-24.5-7.4-49.4-5.2-74.5
	c5.1-56.2,26.8-105,65.6-145.9c29.6-31.2,65.2-52.9,106.5-65.2c26-7.8,52.6-10.9,79.7-9.5c48.4,2.5,92.5,17.7,131.4,46.7
	c12.1,9,22.8,19.9,33.6,30.5c65.1,63.6,115.6,137.2,151.2,221c11.7,27.5,21.6,55.7,29.3,84.6c12.8,47.9-15.1,97.8-62.7,112.4
	c-11.1,3.4-22.4,4-33.9,4.2C497.4,568.5,476.9,568.4,454.1,568.3"
                    />
                    <path
                      fill="#FFFFFF"
                      d="M339.1,401.5h-34.9v-27.6h67c0.2,1.8,0.5,3.1,0.5,4.4c-0.2,33.5,0.1,67.1-1,100.6c-0.5,16.5-9,29.2-24.4,36.5
	c-1.4,0.6-2.9,1-4.5,1.5c-7.1-7.3-13.9-14.3-21-21.6c0.5-0.5,1.1-1.3,2-1.8c11.4-6,16.1-15.8,16.1-28.1c0.1-19.1,0-38.2,0.1-57.3
	C339.1,406.1,339.1,404.2,339.1,401.5 M549.1,376c-7.9-1.6-15-3.6-22.2-4.6c-21.6-2.9-40.1,2.6-54.1,20.4
	c-11.3,14.3-14.3,30.6-12.4,48c1.9,17.3,9.2,31.6,25.4,39.9c12.8,6.5,26.4,7.7,40.5,5.8c8.6-1.1,16.2-4.5,23.6-9.9
	c-2.3-3.7-4.3-7.1-6.4-10.4c-2.2-3.5-4.4-6.9-6.3-9.8c-5.9,1.3-11,2.9-16.3,3.4c-12.9,1.2-22.8-4.6-26.8-15.1
	c-3-7.9-3.2-16.1-1.3-24.1c3.6-15.8,16.6-23.2,33.5-19.7c4.8,1,9.6,2.5,14.9,3.9C543.7,394.7,546.2,386,549.1,376 M393.9,341.2
	c-0.3,0.9-0.5,1.4-0.5,1.9c0,35.8-0.3,71.5,0.2,107.3c0.2,16.2,12,30.4,27.7,35.4c7-6.6,14.3-13.4,21.4-20.1c-0.3-0.7-0.3-0.9-0.4-1
	c-1-0.7-2-1.4-3-2c-10-5.9-14.7-14.9-15-26.2c-0.2-9.5-0.1-19.1-0.1-28.6c0-2,0-4,0-6.5h27.7v-27.8h-27.7v-40.3
	C413.7,336,403.9,338.6,393.9,341.2 M339.5,362h32.1v-22c-10.7-2.7-21.1-5.3-32.1-8.1V362z"
                    />
                  </svg>