<svg width="23" height="21" viewBox="0 0 23 21" fill="none" xmlns="http://www.w3.org/2000/svg">
<path d="M1 2.33854C1 1.95534 1.29995 1.67188 1.64286 1.67188H16.1365C16.297 1.67188 16.3977 1.72925 16.4718 1.81468C16.5562 1.91199 16.6365 2.08708 16.6365 2.33854C16.6365 2.59 16.5562 2.7651 16.4718 2.8624C16.3977 2.94783 16.297 3.00521 16.1365 3.00521H1.64286C1.29995 3.00521 1 2.72175 1 2.33854ZM1 10.6719C1 10.2887 1.29995 10.0052 1.64286 10.0052H21.3571C21.7 10.0052 22 10.2887 22 10.6719C22 11.0551 21.7 11.3385 21.3571 11.3385H1.64286C1.29995 11.3385 1 11.0551 1 10.6719ZM8.5 19.0052C8.5 19.2786 8.16419 19.6719 7.70637 19.6719H1.64286C1.29995 19.6719 1 19.3884 1 19.0052C1 18.622 1.29995 18.3385 1.64286 18.3385H7.70637C8.16419 18.3385 8.5 18.7318 8.5 19.0052Z" stroke="#006CEB" stroke-width="2"/>
</svg>
