<svg width="21" height="23" viewBox="0 0 21 23" fill="none" xmlns="http://www.w3.org/2000/svg">
<path fill-rule="evenodd" clip-rule="evenodd" d="M15.8625 7.7673C15.8625 10.5814 13.5812 12.8627 10.767 12.8627C7.95292 12.8627 5.67162 10.5814 5.67162 7.7673C5.67162 4.95317 7.95292 2.67188 10.767 2.67188C13.5812 2.67188 15.8625 4.95317 15.8625 7.7673ZM14.4721 13.8197C16.5059 12.5721 17.8625 10.3281 17.8625 7.7673C17.8625 3.8486 14.6857 0.671875 10.767 0.671875C6.84835 0.671875 3.67162 3.8486 3.67162 7.7673C3.67162 10.3281 5.0282 12.572 7.06192 13.8197C5.87836 14.3056 4.79052 15.0241 3.86829 15.9463C2.03865 17.776 0.456643 20.0734 1.01077 22.845H10.767H20.5232C22.0753 22.2907 19.4953 17.776 17.6657 15.9463C16.7435 15.0241 15.6556 14.3056 14.4721 13.8197ZM16.2514 17.3605C16.9837 18.0928 17.9613 19.4836 18.557 20.7341C18.575 20.7718 18.5923 20.8088 18.609 20.845H10.767H3.00853C3.28739 19.6907 4.09292 18.5501 5.28251 17.3605C6.73708 15.906 8.7099 15.0888 10.767 15.0888C12.824 15.0888 14.7969 15.906 16.2514 17.3605ZM18.9997 22.0023C18.9996 22.0103 18.9999 22.0146 19.0001 22.0147C19.0001 22.0148 19.0002 22.0139 19.0002 22.012C19.0001 22.0099 19 22.0067 18.9997 22.0023Z" fill="#006CEB"/>
</svg>
